<?xml version="1.0" standalone="no"?>
<!DOCTYPE svg PUBLIC "-//W3C//DTD SVG 20010904//EN"
 "http://www.w3.org/TR/2001/REC-SVG-20010904/DTD/svg10.dtd">
<svg version="1.0" xmlns="http://www.w3.org/2000/svg"
 width="1024.000000pt" height="416.000000pt" viewBox="0 0 1024.000000 416.000000"
 preserveAspectRatio="xMidYMid meet">

<g transform="translate(0.000000,416.000000) scale(0.100000,-0.100000)"
fill="#000000" stroke="none">
<path d="M180 3208 c0 -156 13 -238 50 -313 28 -58 107 -159 96 -123 -3 10
-10 78 -17 150 -10 122 -8 214 8 356 l5 52 -71 0 -71 0 0 -122z"/>
<path d="M800 3129 c47 -66 71 -143 80 -259 5 -58 15 -130 24 -160 9 -30 16
-84 16 -121 0 -76 -3 -74 93 -84 l67 -7 0 123 c0 160 -13 239 -52 319 -38 78
-123 167 -196 204 -28 14 -54 26 -57 26 -3 0 8 -18 25 -41z"/>
<path d="M4042 2948 c3 -70 6 -83 21 -86 15 -3 17 6 17 82 0 80 -1 86 -20 86
-20 0 -21 -5 -18 -82z"/>
</g>
</svg>
